<?xml version="1.0" encoding="utf-8"?>
<!-- Generator: Adobe Illustrator 25.4.0, SVG Export Plug-In . SVG Version: 6.00 Build 0)  -->
<svg version="1.1" id="Camada_1" xmlns="http://www.w3.org/2000/svg" xmlns:xlink="http://www.w3.org/1999/xlink" x="0px" y="0px"
	 viewBox="0 0 623.62 623.62" style="enable-background:new 0 0 623.62 623.62;" xml:space="preserve">
<style type="text/css">
	.st0{fill:#F4EDED;}
</style>
<g>
	<g>
		<path class="st0" d="M149.21,107.6h-2.42c-17.35,0-31.41-14.06-31.41-31.41c0-17.34,14.07-31.41,31.41-31.41h338.45v62.89
			l34.13,0.01V24.35c0-11.24-9.11-20.35-20.35-20.35H208.13h-8.47h-52.87C106.93,4,74.6,36.32,74.6,76.19v470.62
			c0,39.87,32.32,72.19,72.19,72.19h64.73v-0.01l-62.31,0V107.6z"/>
		<path class="st0" d="M451.87,370.14c-14.17-11.6-20.82,0.5-27.23-4.75c-2.68-2.19-3.05-6.63-1.46-11.82
			c-1.52,0-2.88-0.37-3.95-1.24c-1.42-1.16-2.12-3.01-2.18-5.19c-5.57,4.77-10.4,7.04-12.43,5.38c-0.59-0.49-0.9-1.28-0.96-2.31
			l-11.79,14.41c1,2.67,1.12,4.76,0.09,6.01c-4.34,5.3-26.16-0.99-31.07,5.01c-7.75,9.46,2.87,26.62-4.3,35.39l-6.51-5.33
			c2.43,6.58,2.53,12.08-0.33,15.57c-8.08,9.87-36.33,0.13-63.09-21.77c-26.76-21.9-41.9-47.66-33.82-57.54
			c2.86-3.49,8.26-4.48,15.2-3.4l-6.51-5.33c7.18-8.77,26.09-1.76,33.84-11.22c4.91-6-5.58-26.14-1.24-31.45
			c1.11-1.35,3.41-1.61,6.59-0.98l54.93-67.12c-1.24-2.99-1.44-5.3-0.34-6.65c4.35-5.31,26.16,0.99,31.06-5.01
			c7.75-9.46-2.86-26.62,4.32-35.39l7.67,6.28c-3.05-7.32-3.38-13.42-0.28-17.2c8.07-9.87,36.32-0.13,63.08,21.77
			c26.76,21.9,41.91,47.66,33.82,57.54c-3.09,3.78-9.14,4.66-16.92,3.12l7.68,6.29c-7.17,8.77-26.09,1.76-33.83,11.22
			c-4.91,6,5.58,26.14,1.24,31.45c-1.02,1.25-3.09,1.55-5.91,1.1l-12.85,15.7c1.02-0.15,1.86,0,2.45,0.48
			c2.03,1.66,0.76,6.84-2.81,13.25c2.16-0.37,4.09-0.05,5.52,1.11c1.07,0.87,1.7,2.14,1.99,3.63c4.77-2.59,9.2-3.11,11.88-0.91
			c6.42,5.25-4.13,14.15,10.05,25.75c30.01,24.55,58.02,36.4,85.93,54.47v-282.4c0-11.24-9.11-20.35-20.35-20.35l-379.83-0.1v511.41
			L529.05,619c11.24,0,20.35-9.11,20.35-20.35V468.03c-2.2-1.83-4.32-3.6-6.35-5.26C507.39,433.6,490.07,401.4,451.87,370.14z
			 M510.91,557.12c0,7.42-72.41,13.43-161.74,13.43c-89.32,0-161.73-6.01-161.73-13.43v-56.66c0-2.24,6.64-4.35,18.32-6.21v-8.22
			c0-7.42,64.21-13.43,143.4-13.43c79.21,0,143.41,6.01,143.41,13.43v8.22c11.69,1.86,18.33,3.97,18.33,6.21V557.12z"/>
	</g>
</g>
</svg>
