<?xml version="1.0" encoding="utf-8"?>
<!-- Generator: Adobe Illustrator 25.4.0, SVG Export Plug-In . SVG Version: 6.00 Build 0)  -->
<svg version="1.1" id="Camada_1" xmlns="http://www.w3.org/2000/svg" xmlns:xlink="http://www.w3.org/1999/xlink" x="0px" y="0px"
	 viewBox="0 0 1200 633" style="enable-background:new 0 0 1200 633;" xml:space="preserve">
<style type="text/css">
	.st0{fill:#FFFFFF;}
	.st1{fill:#FF0000;}
	.st2{fill:#65E400;}
	.st3{fill:#FF008A;}
	.st4{fill:#FCAE16;}
	.st5{fill:#163BFC;}
	.st6{fill:none;}
	.st7{font-family:'Montserrat-Bold';}
	.st8{font-size:48px;}
</style>
<rect y="0" class="st0" width="1200" height="628"/>
<rect y="618" class="st1" width="240" height="15"/>
<rect x="960" y="618" class="st2" width="240" height="15"/>
<rect x="480" y="618" class="st3" width="240" height="15"/>
<rect x="240" y="618" class="st4" width="240" height="15"/>
<rect x="720" y="618" class="st5" width="240" height="15"/>
<rect x="133.7" y="221.7" class="st4" width="10" height="269"/>
<rect x="62.4" y="111.6" class="st6" width="722.8" height="53.3"/>
<text transform="matrix(1 0 0 1 65.3844 138.3252)" class="st7 st8">LAW_REF_1</text>
<rect x="116.8" y="262.2" class="st6" width="731.4" height="261.6"/>
<text transform="matrix(1 0 0 1 179.4972 289.0688)" class="st7 st8">LINE_1</text>
<text transform="matrix(1 0 0 1 179.4972 346.6688)" class="st7 st8">LINE_2</text>
<text transform="matrix(1 0 0 1 179.4972 404.2688)" class="st7 st8">LINE_3</text>
<text transform="matrix(1 0 0 1 179.4972 461.8688)" class="st7 st8">LINE_4</text>
<g>
	<path d="M992.3,546.4h7.8v27.3h16.8v6.3h-24.6V546.4L992.3,546.4z"/>
	<path d="M1047.3,573.8v6.2h-26v-33.6h25.4v6.2H1029v7.3h15.6v6H1029v7.8L1047.3,573.8L1047.3,573.8z"/>
	<path d="M1074.3,580l-8.1-11.7l-8,11.7h-8.9l12.4-17.1l-11.8-16.5h8.8l7.7,10.9l7.6-10.9h8.4l-11.7,16.2l12.5,17.4L1074.3,580
		L1074.3,580z"/>
	<path d="M1086.4,579.1c-0.9-0.9-1.3-2-1.3-3.4s0.4-2.5,1.3-3.3s2-1.3,3.3-1.3s2.4,0.4,3.3,1.3c0.9,0.8,1.3,2,1.3,3.3
		s-0.4,2.5-1.3,3.4s-2,1.3-3.3,1.3C1088.4,580.4,1087.3,580,1086.4,579.1z"/>
	<path d="M1123.7,572.8h-15.6l-3,7.2h-8l15-33.6h7.7l15,33.6h-8.2L1123.7,572.8z M1121.2,566.9l-5.3-12.9l-5.3,12.9H1121.2z"/>
	<path d="M1144.7,578.4c-2.8-1.5-5-3.6-6.6-6.2c-1.6-2.6-2.4-5.6-2.4-8.9s0.8-6.3,2.4-8.9c1.6-2.6,3.8-4.7,6.6-6.2
		c2.8-1.5,5.9-2.3,9.4-2.3s6.6,0.8,9.4,2.3s5,3.6,6.6,6.2c1.6,2.6,2.4,5.6,2.4,8.9s-0.8,6.3-2.4,8.9s-3.8,4.7-6.6,6.2
		c-2.8,1.5-5.9,2.3-9.4,2.3S1147.5,579.9,1144.7,578.4z M1159.5,572.6c1.6-0.9,2.9-2.2,3.8-3.8s1.4-3.5,1.4-5.6s-0.5-3.9-1.4-5.6
		s-2.2-2.9-3.8-3.8s-3.4-1.4-5.4-1.4s-3.8,0.5-5.4,1.4s-2.9,2.2-3.8,3.8s-1.4,3.5-1.4,5.6s0.5,3.9,1.4,5.6s2.2,2.9,3.8,3.8
		s3.4,1.4,5.4,1.4S1157.9,573.5,1159.5,572.6z"/>
</g>
<text transform="matrix(1 0 0 1 65.384 192.1377)" class="st7 st8">LAW_REF_2</text>
</svg>
